<?xml version="1.0" encoding="UTF-8" standalone="no"?>
<!-- Created with Inkscape (http://www.inkscape.org/) -->

<svg
   xmlns:dc="http://purl.org/dc/elements/1.1/"
   xmlns:cc="http://creativecommons.org/ns#"
   xmlns:rdf="http://www.w3.org/1999/02/22-rdf-syntax-ns#"
   xmlns:svg="http://www.w3.org/2000/svg"
   xmlns="http://www.w3.org/2000/svg"
   xmlns:sodipodi="http://sodipodi.sourceforge.net/DTD/sodipodi-0.dtd"
   xmlns:inkscape="http://www.inkscape.org/namespaces/inkscape"
   id="svg8"
   version="1.1"
   viewBox="0 0 210 297"
   height="297mm"
   width="210mm"
   inkscape:version="0.92.3 (2405546, 2018-03-11)"
   sodipodi:docname="Desenhos.svg">
  <sodipodi:namedview
     inkscape:window-maximized="1"
     inkscape:window-y="-8"
     inkscape:window-x="-8"
     inkscape:window-height="1017"
     inkscape:window-width="1920"
     showgrid="false"
     inkscape:current-layer="layer1"
     inkscape:document-units="mm"
     inkscape:cy="922.21007"
     inkscape:cx="119.64265"
     inkscape:zoom="2.8"
     inkscape:pageshadow="2"
     inkscape:pageopacity="0.0"
     borderopacity="1.0"
     bordercolor="#666666"
     pagecolor="#ffffff"
     id="base" />
  <defs
     id="defs2" />
  <metadata
     id="metadata5">
    <rdf:RDF>
      <cc:Work
         rdf:about="">
        <dc:format>image/svg+xml</dc:format>
        <dc:type
           rdf:resource="http://purl.org/dc/dcmitype/StillImage" />
        <dc:title></dc:title>
      </cc:Work>
    </rdf:RDF>
  </metadata>
  <g
     id="layer1"
     inkscape:groupmode="layer"
     inkscape:label="Camada 1">
    <path
       id="path4795"
       title="sin(x)"
       d="m 19.702204,68.407344 v 0 c 1.044668,-1.044669 2.089337,-2.088296 3.134005,-3.007054 1.044669,-0.918759 2.089337,-1.710816 3.134006,-2.282196 1.044668,-0.571379 2.089337,-0.920941 3.134005,-1.007209 1.044669,-0.08627 2.089337,0.09093 3.134006,0.510568 1.044668,0.419639 2.089337,1.080881 3.13401,1.905271 1.04466,0.824391 2.08933,1.810284 3.134,2.840705 1.04467,1.03042 2.08934,2.103313 3.13401,3.091378 1.04467,0.988066 2.08933,1.889333 3.134,2.596868 1.04467,0.707535 2.08934,1.219925 3.13401,1.476376 1.04467,0.256451 2.08933,0.256451 3.134,0 1.04467,-0.256451 2.08934,-0.768841 3.13401,-1.476376 1.04467,-0.707535 2.08934,-1.608802 3.134,-2.596868 1.04467,-0.988065 2.08934,-2.060958 3.13401,-3.091378 1.04466,-1.030421 2.08933,-2.016314 3.134,-2.840705 1.04467,-0.82439 2.08934,-1.485632 3.13401,-1.905271 1.04467,-0.419639 2.08933,-0.596836 3.134,-0.510568 1.04467,0.08627 2.08934,0.43583 3.13401,1.007209 1.04467,0.57138 2.08934,1.363437 3.134,2.282196 1.04467,0.918758 2.08934,1.962385 3.13401,3.007054 v 0"
       style="fill:none;stroke:#000000;stroke-width:0.5;stroke-miterlimit:4;stroke-dasharray:none;stroke-opacity:1"
       inkscape:connector-curvature="0" />
    <g
       id="g4815"
       transform="translate(-0.30067822)">
      <path
         inkscape:connector-curvature="0"
         id="path4803"
         d="M 19.702204,48.557236 V 68.407344 H 84.510973"
         style="fill:none;stroke:#000000;stroke-width:0.29978374;stroke-linecap:butt;stroke-linejoin:miter;stroke-miterlimit:4;stroke-dasharray:none;stroke-opacity:1" />
      <path
         inkscape:connector-curvature="0"
         id="path4805"
         d="m 19.702204,68.407344 v 20"
         style="fill:none;stroke:#000000;stroke-width:0.29947355;stroke-linecap:butt;stroke-linejoin:miter;stroke-miterlimit:4;stroke-dasharray:none;stroke-opacity:1" />
    </g>
    <circle
       style="fill:#000000;fill-opacity:1;stroke:none;stroke-width:0.30000001;stroke-miterlimit:4;stroke-dasharray:none;stroke-opacity:1"
       id="path4819"
       cx="79.13607"
       cy="68.406876"
       r="0.60970861" />
    <circle
       r="0.60970861"
       cy="68.406876"
       cx="19.415833"
       id="circle4821"
       style="fill:#000000;fill-opacity:1;stroke:none;stroke-width:0.30000001;stroke-miterlimit:4;stroke-dasharray:none;stroke-opacity:1" />
  </g>
</svg>
